<?xml version="1.0" encoding="UTF-8" standalone="no"?>
<!DOCTYPE svg PUBLIC "-//W3C//DTD SVG 1.1//EN" "http://www.w3.org/Graphics/SVG/1.1/DTD/svg11.dtd">
<svg width="100%" height="100%" viewBox="0 0 1080 1080" version="1.1" xmlns="http://www.w3.org/2000/svg" xmlns:xlink="http://www.w3.org/1999/xlink" xml:space="preserve" xmlns:serif="http://www.serif.com/" style="fill-rule:evenodd;clip-rule:evenodd;stroke-linejoin:round;stroke-miterlimit:2;">
    <rect x="-148" y="-55" width="1345" height="1263" style="fill:rgb(229,216,184);"/>
    <g transform="matrix(7.64247,0,0,-7.64247,-375.874,1522.52)">
        <path d="M69.12,142.72L69.12,93.44C69.12,91.04 71.2,89.76 74.4,89.76L90.56,89.76C91.52,89.76 92.64,91.36 93.44,91.36L104.8,91.36C105.6,91.36 106.24,89.12 107.84,89.12L148.64,89.12C156.64,89.12 170.56,89.76 170.56,91.36L170.56,150.4C170.56,153.6 160.32,155.2 153.44,156C151.68,160.48 149.12,168 144.32,168L118.72,168C113.92,168 110.88,159.36 108,151.84L85.76,151.84C85.12,151.84 84.32,151.68 83.2,151.2L70.08,144.48C69.28,144 69.12,143.2 69.12,142.72ZM107.84,120.32C107.84,134.56 117.28,144 131.52,144C145.6,144 155.04,134.56 155.04,120.32C155.04,106.24 145.6,96.8 131.52,96.8C117.28,96.8 107.84,106.24 107.84,120.32ZM77.12,144.96C77.12,146.4 79.04,147.36 81.92,147.36C84.8,147.36 86.72,146.4 86.72,144.96C86.72,143.52 84.8,142.56 81.92,142.56C79.04,142.56 77.12,143.52 77.12,144.96ZM116.16,167.04C112.96,159.52 107.2,147.36 106.08,146.72L104.64,145.92L91.84,140C91.68,139.84 90.88,139.52 90.72,139.52L71.84,139.52C69.44,139.52 69.44,141.44 69.44,143.84C69.44,141.44 71.04,140.8 71.84,140.8L90.72,140.8C90.88,140.8 91.36,140.8 91.68,140.96L104.96,146.72L106.08,147.36C106.72,147.68 114.08,165.12 116.16,167.04ZM91.84,140C92.8,139.04 93.6,137.92 93.6,134.72L93.6,94.56C93.6,92.96 92.64,91.36 91.84,90.56C92.16,91.36 92.16,91.84 92.16,92.64L92.16,134.72C92.16,137.12 91.68,138.24 90.72,139.52C90.88,139.52 91.68,139.84 91.84,140ZM104.64,144.32L106.08,145.12L106.08,92.16C106.08,91.36 106.24,90.88 106.4,90.08C105.6,90.88 104.64,92.48 104.64,94.08L104.64,144.32ZM156.32,147.52C154.72,147.52 147.68,164.96 146.88,167.04C148.48,165.44 155.52,148.8 156.32,148.8L167.36,148.8C168.16,148.8 169.76,149.44 169.76,151.84C169.76,149.44 169.76,147.52 167.36,147.52L156.32,147.52ZM107.2,146.72C109.6,149.92 112.96,154.08 114.56,154.08L148.48,154.08C150.08,154.08 153.44,149.92 155.84,146.72C152.64,149.92 149.28,153.12 147.68,153.12L115.36,153.12C113.76,153.12 110.4,149.92 107.2,146.72Z" style="fill:rgb(0,159,255);fill-rule:nonzero;"/>
    </g>
    <g transform="matrix(-1.79192,0,-3.24372e-32,-1.79192,848.423,833.771)">
        <path d="M116.48,109.44L116.48,74.08C116.48,59.68 128.64,56.16 143.04,56.16C143.04,62.56 146.24,68 157.28,70.88L157.28,71.68C157.28,71.68 137.12,68.64 135.52,68.64C132.32,68.64 126.24,70.08 126.24,77.28L126.24,109.44L164.32,109.44L186.08,108.32L186.08,113.76L164.32,112.64L126.24,112.64L126.24,133.28L118.474,131.727C108.439,138.301 97.44,150.4 97.44,150.4L137.44,150.4L159.2,149.28L159.2,154.72L137.44,153.6L97.44,153.6L90.24,161.6L78.72,150.24L86.08,148.32C87.732,146.118 103.003,135.388 114.369,130.906L111.04,130.24C111.04,128.32 114.4,126.08 116.48,125.28L116.48,112.64L71.84,112.64L63.84,120.64L52.32,109.44L116.48,109.44ZM168.907,172.16C169.614,161.507 173.228,148.64 182.88,148.64C186.08,148.64 188.48,150.88 188.48,154.24C188.48,163.04 173.44,166.4 170.24,184.48L169.6,184.48C169.058,182.602 168.722,179.266 168.777,175.36L124.818,175.36C124.911,180.055 125.417,190.887 127.52,200L110.24,195.68C110.24,193.6 112.16,192.96 115.2,190.56L115.2,175.36L72.16,175.36L64.96,183.36L53.44,172L60.8,170.08C63.36,167.2 71.52,162.4 77.12,160L77.76,160.32C75.04,164.16 72.96,170.56 72.96,172.16L168.907,172.16Z" style="fill:rgb(0,159,255);fill-rule:nonzero;"/>
    </g>
</svg>
